<svg width="50" height="50" viewBox="0 0 50 50" fill="none" xmlns="http://www.w3.org/2000/svg">
<g clip-path="url(#clip0_1215_1294)">
<rect width="50" height="50" rx="4" fill="#0E0813"/>
<rect width="50" height="50" rx="4" fill="url(#paint0_radial_1215_1294)" fill-opacity="0.2"/>
<path fill-rule="evenodd" clip-rule="evenodd" d="M9 9H15H22.9993C22.9995 9 22.9997 9 23 9C25.1215 9.00021 27.156 10.0537 28.6562 11.9288C30.1565 13.8041 30.9993 16.3475 30.9993 18.9996C30.9993 21.6516 30.1565 24.1951 28.6562 26.0703C27.156 27.9454 25.1215 28.9989 23.0001 28.9991L25.6669 32.9993H30.1251L27.8518 29.2684C29.0784 28.3545 30.4143 27.1554 31.469 24.9484L41.0002 41.0001H35.0003L32.4996 36.8962V36.9991H28.3336L31 40.9987H25.0001L17.0001 28.9992V28.9989H15V40.9986H9V28.9989V22.9992V14.9997V9ZM22.9993 22.9992V22.9988H20.9992C23.2083 22.9987 24.9992 21.208 24.9992 18.9989C24.9992 16.8142 23.2475 15.0385 21.0719 14.9997H15V22.9992H22.9993Z" fill="white"/>
<g filter="url(#filter0_d_1215_1294)">
<rect x="22" y="22" width="28" height="28" rx="14" fill="#0E0813"/>
<path d="M28 37H34C34.2652 37 34.5196 36.8946 34.7071 36.7071C34.8946 36.5196 35 36.2652 35 36V28C35 27.7348 34.8946 27.4804 34.7071 27.2929C34.5196 27.1054 34.2652 27 34 27H28C27.7348 27 27.4804 27.1054 27.2929 27.2929C27.1054 27.4804 27 27.7348 27 28V36C27 36.2652 27.1054 36.5196 27.2929 36.7071C27.4804 36.8946 27.7348 37 28 37ZM27 44C27 44.2652 27.1054 44.5196 27.2929 44.7071C27.4804 44.8946 27.7348 45 28 45H34C34.2652 45 34.5196 44.8946 34.7071 44.7071C34.8946 44.5196 35 44.2652 35 44V40C35 39.7348 34.8946 39.4804 34.7071 39.2929C34.5196 39.1054 34.2652 39 34 39H28C27.7348 39 27.4804 39.1054 27.2929 39.2929C27.1054 39.4804 27 39.7348 27 40V44ZM37 44C37 44.2652 37.1054 44.5196 37.2929 44.7071C37.4804 44.8946 37.7348 45 38 45H44C44.2652 45 44.5196 44.8946 44.7071 44.7071C44.8946 44.5196 45 44.2652 45 44V37C45 36.7348 44.8946 36.4804 44.7071 36.2929C44.5196 36.1054 44.2652 36 44 36H38C37.7348 36 37.4804 36.1054 37.2929 36.2929C37.1054 36.4804 37 36.7348 37 37V44ZM38 34H44C44.2652 34 44.5196 33.8946 44.7071 33.7071C44.8946 33.5196 45 33.2652 45 33V28C45 27.7348 44.8946 27.4804 44.7071 27.2929C44.5196 27.1054 44.2652 27 44 27H38C37.7348 27 37.4804 27.1054 37.2929 27.2929C37.1054 27.4804 37 27.7348 37 28V33C37 33.2652 37.1054 33.5196 37.2929 33.7071C37.4804 33.8946 37.7348 34 38 34Z" fill="white"/>
</g>
</g>
<defs>
<filter id="filter0_d_1215_1294" x="15.5833" y="15.5833" width="40.8333" height="40.8333" filterUnits="userSpaceOnUse" color-interpolation-filters="sRGB">
<feFlood flood-opacity="0" result="BackgroundImageFix"/>
<feColorMatrix in="SourceAlpha" type="matrix" values="0 0 0 0 0 0 0 0 0 0 0 0 0 0 0 0 0 0 127 0" result="hardAlpha"/>
<feOffset/>
<feGaussianBlur stdDeviation="3.20833"/>
<feComposite in2="hardAlpha" operator="out"/>
<feColorMatrix type="matrix" values="0 0 0 0 0 0 0 0 0 0 0 0 0 0 0 0 0 0 0.56 0"/>
<feBlend mode="normal" in2="BackgroundImageFix" result="effect1_dropShadow_1215_1294"/>
<feBlend mode="normal" in="SourceGraphic" in2="effect1_dropShadow_1215_1294" result="shape"/>
</filter>
<radialGradient id="paint0_radial_1215_1294" cx="0" cy="0" r="1" gradientUnits="userSpaceOnUse" gradientTransform="translate(25 25) rotate(90) scale(39.566)">
<stop stop-color="#7013E6"/>
<stop offset="1" stop-opacity="0"/>
</radialGradient>
<clipPath id="clip0_1215_1294">
<rect width="50" height="50" rx="4" fill="white"/>
</clipPath>
</defs>
</svg>
