<?xml version="1.0" standalone="no"?>
<!DOCTYPE svg PUBLIC "-//W3C//DTD SVG 20010904//EN"
 "http://www.w3.org/TR/2001/REC-SVG-20010904/DTD/svg10.dtd">
<svg version="1.0" xmlns="http://www.w3.org/2000/svg"
 width="700.000000pt" height="700.000000pt" viewBox="0 0 700.000000 700.000000"
 preserveAspectRatio="xMidYMid meet">
<metadata>
Created by potrace 1.14, written by Peter Selinger 2001-2017
</metadata>
<g transform="translate(0.000000,700.000000) scale(0.100000,-0.100000)"
fill="#000000" stroke="none">
<path d="M440 6984 c-162 -35 -305 -147 -380 -299 -64 -129 -60 94 -58 -3217
l3 -3013 22 -66 c58 -169 200 -309 368 -362 l70 -22 3035 0 3035 0 70 22 c171
54 314 197 368 368 l22 70 0 3035 0 3035 -22 70 c-53 168 -193 310 -362 368
l-66 22 -3020 2 c-2569 1 -3030 -1 -3085 -13z m2931 -1259 c430 -75 781 -442
913 -955 42 -164 51 -236 50 -430 0 -205 -13 -303 -65 -482 l-32 -108 -91 -46
c-287 -145 -550 -378 -729 -646 l-72 -107 -62 -7 -62 -6 31 -45 c35 -52 37
-42 -32 -207 -78 -191 -125 -410 -138 -652 l-7 -136 -348 521 -347 521 -140 0
-140 0 0 -840 0 -840 -420 0 -420 0 0 2240 0 2240 1014 0 c845 0 1027 -2 1097
-15z m1457 -2525 c18 -11 41 -34 52 -52 19 -32 20 -52 20 -628 0 -576 -1 -596
-20 -628 -11 -18 -34 -41 -52 -52 -32 -19 -52 -20 -488 -20 -436 0 -456 1
-488 20 -18 11 -41 34 -52 52 -19 32 -20 52 -20 628 0 576 1 596 20 628 11 18
34 41 52 52 32 19 52 20 488 20 436 0 456 -1 488 -20z m1400 0 c18 -11 41 -34
52 -52 19 -31 20 -51 20 -418 0 -367 -1 -387 -20 -418 -11 -18 -34 -41 -52
-52 -32 -19 -52 -20 -488 -20 -436 0 -456 1 -488 20 -18 11 -41 34 -52 52 -19
31 -20 51 -20 418 0 367 1 387 20 418 11 18 34 41 52 52 32 19 52 20 488 20
436 0 456 -1 488 -20z m0 -1260 c18 -11 41 -34 52 -52 19 -32 20 -52 20 -558
0 -506 -1 -526 -20 -558 -11 -18 -34 -41 -52 -52 -32 -19 -52 -20 -488 -20
-436 0 -456 1 -488 20 -18 11 -41 34 -52 52 -19 32 -20 52 -20 558 0 506 1
526 20 558 11 18 34 41 52 52 32 19 52 20 488 20 436 0 456 -1 488 -20z
m-1400 -420 c18 -11 41 -34 52 -52 19 -31 20 -51 20 -348 0 -297 -1 -317 -20
-348 -11 -18 -34 -41 -52 -52 -32 -19 -52 -20 -488 -20 -436 0 -456 1 -488 20
-18 11 -41 34 -52 52 -19 31 -20 51 -20 348 0 297 1 317 20 348 11 18 34 41
52 52 32 19 52 20 488 20 436 0 456 -1 488 -20z"/>
<path d="M2100 4340 l0 -561 478 3 c463 4 479 4 535 26 176 66 301 191 359
360 30 88 32 249 4 332 -31 91 -75 166 -136 229 -65 66 -121 102 -219 140
l-66 26 -477 3 -478 3 0 -561z"/>
</g>
</svg>
