<svg width="128" height="128" viewBox="0 0 128 128" fill="none" xmlns="http://www.w3.org/2000/svg">
<path fill-rule="evenodd" clip-rule="evenodd" d="M0 0H23.9996H55.9983C55.9986 0 55.9988 0 55.9991 0C64.4856 0.00028285 72.6245 4.2143 78.6253 11.7151C84.6264 19.2161 87.9978 29.3897 87.9978 39.9978C87.9978 50.6059 84.6264 60.7795 78.6253 68.2805C72.6246 75.7812 64.4859 79.9952 55.9996 79.9956L66.6667 95.9955H84.499L75.4058 81.0723C80.312 77.4168 85.6556 72.6202 89.8743 63.7926L127.999 127.998H103.999L93.9981 111.585V111.995H77.3332L87.9989 127.993H63.9993L32.0005 79.9964H23.9996V127.993H0V79.9964V55.9977V23.9987V0ZM55.9983 55.9977V55.9961H47.9997C56.8361 55.9961 63.9995 48.8331 63.9995 39.997C63.9995 31.2143 56.9224 24.0845 48.1596 23.9987H23.9996V55.9977H55.9983Z" fill="#FAFAFA"/>
</svg>
